<svg width="94" height="98" viewBox="0 0 94 98" fill="none" xmlns="http://www.w3.org/2000/svg">
<path d="M59.8447 1.11743L59.4991 0.845788L59.1854 1.15372L53.4189 6.81479L53.1519 7.0769L53.328 7.40699L59.6448 19.2446L42.9398 38.5828L42.3174 39.3034L43.2639 39.4067L63.7964 41.6485L64.0475 41.6759L64.2185 41.4901L74.9985 29.7789L87.0603 32.7627L87.3659 32.8383L87.5661 32.5954L92.2732 26.8862L92.5935 26.4977L92.2028 26.1801L81.2203 17.2521L80.9256 17.0125L80.6157 17.2322L78.4246 18.7857L71.0118 12.9654L71.8372 11.0124L71.9859 10.6607L71.6856 10.4247L59.8447 1.11743ZM39.4522 41.9634L39.2013 41.936L39.0303 42.1215L33.4273 48.199L32.7521 48.9314L33.7429 49.0352L54.8792 51.2489L55.1241 51.2745L55.2937 51.096L60.9734 45.1193L61.669 44.3873L60.6652 44.2778L39.4522 41.9634ZM25.7885 83.1188L26.3982 82.4038L25.4645 82.2976L4.84986 79.954L4.60327 79.926L4.43184 80.1054L0.911671 83.7903L0.775105 83.9332L0.773234 84.1309L0.657157 96.3873L0.650883 97.0499L1.28975 96.8742L17.825 92.3257L17.9731 92.2849L18.0728 92.168L25.7885 83.1188ZM30.9808 51.0058L30.73 50.9785L30.559 51.164L24.956 57.2414L24.2807 57.9738L25.2715 58.0776L46.4078 60.2913L46.6527 60.317L46.8223 60.1385L52.5021 54.1617L53.1977 53.4298L52.1938 53.3202L30.9808 51.0058ZM22.5933 60.3919L22.3424 60.3645L22.1714 60.55L16.5684 66.6275L15.8932 67.3599L16.884 67.4636L38.0203 69.6774L38.2652 69.703L38.4348 69.5245L44.1145 63.5478L44.8101 62.8158L43.8063 62.7063L22.5933 60.3919ZM13.6074 69.8998L13.3566 69.8724L13.1856 70.0579L7.58257 76.1354L6.90733 76.8678L7.8981 76.9716L29.0344 79.1853L29.2793 79.2109L29.4489 79.0324L35.1287 73.0557L35.8243 72.3237L34.8204 72.2142L13.6074 69.8998Z" fill="#CE7C00" stroke="#982501"/>
</svg>
