<svg width="94" height="99" viewBox="0 0 94 99" fill="none" xmlns="http://www.w3.org/2000/svg">
<path d="M26.0247 83.3868L18.309 92.436L1.77377 96.9844L1.88985 84.728L5.41001 81.0432L26.0247 83.3868Z" fill="#FFD704"/>
<path d="M14.1698 70.9892L35.3829 73.3036L29.7031 79.2803L8.56682 77.0666L14.1698 70.9892Z" fill="#FFD704"/>
<path d="M23.1557 61.4813L44.3687 63.7957L38.689 69.7724L17.5527 67.5587L23.1557 61.4813Z" fill="#FFD704"/>
<path d="M60.1524 2.10287L71.9933 11.4101L71.0192 13.7151L79.026 20.0018L81.5215 18.2325L92.5041 27.1605L87.797 32.8696L75.4478 29.8148L64.4673 41.7438L43.9348 39.502L60.8641 19.9042L54.3858 7.76394L60.1524 2.10287Z" fill="#FFD704"/>
<path d="M40.0146 43.0528L61.2276 45.3672L55.5479 51.3439L34.4116 49.1302L40.0146 43.0528Z" fill="#FFD704"/>
<path d="M31.5432 52.0952L52.7563 54.4096L47.0765 60.3864L25.9402 58.1727L31.5432 52.0952Z" fill="#FFD704"/>
<path d="M60.4613 1.70977L60.1158 1.43813L59.8021 1.74607L54.0355 7.40714L53.7685 7.66924L53.9446 7.99933L60.2614 19.8369L43.5564 39.1752L42.934 39.8957L43.8805 39.9991L64.413 42.2409L64.6641 42.2683L64.8352 42.0824L75.6152 30.3713L87.6769 33.355L87.9825 33.4306L88.1828 33.1877L92.8898 27.4785L93.2101 27.0901L92.8195 26.7725L81.8369 17.8445L81.5422 17.6049L81.2323 17.8246L79.0413 19.378L71.6285 13.5578L72.4538 11.6048L72.6025 11.253L72.3023 11.017L60.4613 1.70977ZM40.0688 42.5557L39.818 42.5284L39.647 42.7139L34.044 48.7913L33.3687 49.5237L34.3595 49.6275L55.4958 51.8412L55.7407 51.8669L55.9103 51.6884L61.5901 45.7116L62.2857 44.9797L61.2819 44.8702L40.0688 42.5557ZM26.4051 83.7112L27.0148 82.9961L26.0811 82.89L5.46649 80.5464L5.2199 80.5183L5.04847 80.6978L1.52831 84.3826L1.39174 84.5256L1.38987 84.7233L1.2738 96.9797L1.26752 97.6422L1.90639 97.4665L18.4416 92.918L18.5898 92.8773L18.6895 92.7604L26.4051 83.7112ZM31.5974 51.5982L31.3466 51.5708L31.1756 51.7563L25.5726 57.8338L24.8974 58.5662L25.8881 58.6699L47.0244 60.8837L47.2693 60.9093L47.439 60.7308L53.1187 54.7541L53.8143 54.0221L52.8105 53.9126L31.5974 51.5982ZM23.2099 60.9842L22.9591 60.9569L22.7881 61.1424L17.1851 67.2198L16.5098 67.9522L17.5006 68.056L38.6369 70.2697L38.8818 70.2953L39.0514 70.1169L44.7312 64.1401L45.4268 63.4081L44.423 63.2986L23.2099 60.9842ZM14.224 70.4921L13.9732 70.4648L13.8022 70.6503L8.19921 76.7277L7.52397 77.4601L8.51474 77.5639L29.651 79.7776L29.8959 79.8033L30.0656 79.6248L35.7453 73.648L36.4409 72.9161L35.4371 72.8065L14.224 70.4921Z" stroke="#FFD704"/>
</svg>
