<svg width="89" height="97" viewBox="0 0 89 97" fill="none" xmlns="http://www.w3.org/2000/svg">
<path d="M24.6395 82.1046L17.4609 91.0061L1.8616 95.2971L1.79416 83.0912L5.07575 79.472L24.6395 82.1046Z" fill="#FF0000"/>
<path d="M13.2291 69.5848L33.3593 72.1971L28.065 78.0678L8.00888 75.557L13.2291 69.5848Z" fill="#FF8A00"/>
<path d="M21.6044 60.2448L41.7347 62.8571L36.4404 68.7278L16.3843 66.217L21.6044 60.2448Z" fill="#FAFF00"/>
<path d="M29.4147 51.0176L49.545 53.6298L44.2507 59.5006L24.1946 56.9897L29.4147 51.0176Z" fill="#05FF00"/>
<path d="M37.3094 42.1338L57.4397 44.746L52.1454 50.6167L32.0893 48.1059L37.3094 42.1338Z" fill="#0085FF"/>
<path d="M55.7948 1.63839L67.1473 11.08L66.2578 13.3617L73.9344 19.7392L76.2729 18.0131L86.8068 27.0645L82.43 32.6828L70.6865 29.4614L60.4564 41.184L40.972 38.6539L56.7267 19.3791L50.4136 7.19345L55.7948 1.63839Z" fill="#CC00FF"/>
<path d="M56.1145 1.25397L55.7581 0.957596L55.4356 1.2905L50.0545 6.84556L49.8041 7.10398L49.9696 7.42345L56.1315 19.3172L40.5849 38.3375L40.0156 39.0339L40.9076 39.1497L60.3921 41.6798L60.6573 41.7142L60.8332 41.5127L70.8569 30.0266L82.2978 33.165L82.6195 33.2533L82.8245 32.9901L87.2012 27.3718L87.4941 26.9958L87.1326 26.6853L76.5988 17.6338L76.2966 17.3742L75.976 17.6108L73.9526 19.1043L66.8546 13.2074L67.6132 11.2616L67.744 10.9259L67.467 10.6956L56.1145 1.25397ZM37.3738 41.6379L37.1088 41.6035L36.933 41.8047L31.7128 47.7768L31.0937 48.4852L32.0271 48.602L52.0833 51.1129L52.342 51.1453L52.5167 50.9516L57.811 45.0809L58.4495 44.3729L57.5041 44.2502L37.3738 41.6379ZM25.0287 82.4185L25.586 81.7275L24.7062 81.6091L5.14243 78.9764L4.88191 78.9414L4.70534 79.1361L1.42375 82.7553L1.29309 82.8994L1.29417 83.094L1.36161 95.2999L1.36522 95.9522L1.99422 95.7792L17.5935 91.4882L17.7489 91.4454L17.8501 91.32L25.0287 82.4185ZM29.4791 50.5217L29.2141 50.4874L29.0383 50.6885L23.8181 56.6607L23.199 57.369L24.1325 57.4858L44.1886 59.9967L44.4473 60.0291L44.622 59.8354L49.9163 53.9647L50.5548 53.2567L49.6094 53.134L29.4791 50.5217ZM21.6688 59.749L21.4038 59.7146L21.228 59.9158L16.0078 65.8879L15.3887 66.5962L16.3221 66.7131L36.3783 69.2239L36.637 69.2563L36.8117 69.0627L42.106 63.1919L42.7445 62.4839L41.7991 62.3612L21.6688 59.749ZM13.2934 69.089L13.0284 69.0546L12.8526 69.2558L7.63242 75.2279L7.01329 75.9362L7.94677 76.0531L28.0029 78.5639L28.2616 78.5963L28.4363 78.4027L33.7306 72.5319L34.3691 71.8239L33.4237 71.7012L13.2934 69.089Z" stroke="#751C00"/>
</svg>
