<svg width="94" height="98" viewBox="0 0 94 98" fill="none" xmlns="http://www.w3.org/2000/svg">
<path d="M59.7256 1.47413L71.5666 10.7814L70.5924 13.0863L78.5993 19.373L81.0948 17.6037L92.0773 26.5317L87.3702 32.2409L75.0211 29.1861L64.0406 41.1151L43.5081 38.8733L60.4373 19.2755L53.9591 7.1352L59.7256 1.47413Z" fill="#00FFF0"/>
<path d="M13.7431 70.3604L34.9561 72.6749L29.2764 78.6516L8.1401 76.4379L13.7431 70.3604Z" fill="#00FFF0"/>
<path d="M22.7289 60.8525L43.942 63.1669L38.2623 69.1437L17.126 66.93L22.7289 60.8525Z" fill="#00FFF0"/>
<path d="M31.1165 51.4665L52.3295 53.7809L46.6498 59.7576L25.5135 57.5439L31.1165 51.4665Z" fill="#00FFF0"/>
<path d="M60.8009 44.7385L55.1212 50.7152L33.9849 48.5015L39.5879 42.424L50.1944 43.5813L60.8009 44.7385Z" fill="#00FFF0"/>
<path d="M25.5979 82.758L17.8823 91.8072L1.34705 96.3557L1.46312 84.0993L4.98329 80.4144L25.5979 82.758Z" fill="#00FFF0"/>
<path d="M60.0346 1.08103L59.689 0.809394L59.3754 1.11733L53.6088 6.7784L53.3418 7.0405L53.5179 7.37059L59.8347 19.2082L43.1297 38.5464L42.5073 39.267L43.4538 39.3703L63.9863 41.6121L64.2374 41.6395L64.4084 41.4537L75.1885 29.7426L87.2502 32.7263L87.5558 32.8019L87.756 32.559L92.4631 26.8498L92.7834 26.4613L92.3927 26.1437L81.4102 17.2157L81.1155 16.9761L80.8056 17.1958L78.6145 18.7493L71.2017 12.929L72.0271 10.976L72.1758 10.6243L71.8755 10.3883L60.0346 1.08103ZM39.6421 41.927L39.3913 41.8996L39.2202 42.0851L33.6172 48.1626L32.942 48.895L33.9328 48.9988L55.0691 51.2125L55.314 51.2381L55.4836 51.0596L61.1633 45.0829L61.8589 44.3509L60.8551 44.2414L50.2486 43.0842L39.6421 41.927ZM25.9784 83.0824L26.5881 82.3674L25.6544 82.2612L5.03977 79.9176L4.79318 79.8896L4.62175 80.069L1.10158 83.7539L0.965017 83.8969L0.963145 84.0945L0.847068 96.3509L0.840794 97.0135L1.47966 96.8378L18.0149 92.2893L18.163 92.2486L18.2627 92.1316L25.9784 83.0824ZM31.1707 50.9694L30.9199 50.9421L30.7489 51.1276L25.1459 57.205L24.4706 57.9374L25.4614 58.0412L46.5977 60.2549L46.8426 60.2806L47.0122 60.1021L52.692 54.1253L53.3876 53.3934L52.3838 53.2838L31.1707 50.9694ZM22.7832 60.3555L22.5324 60.3281L22.3613 60.5136L16.7583 66.5911L16.0831 67.3235L17.0739 67.4273L38.2102 69.641L38.4551 69.6666L38.6247 69.4881L44.3044 63.5114L45 62.7794L43.9962 62.6699L22.7832 60.3555ZM13.7973 69.8634L13.5465 69.836L13.3755 70.0215L7.77249 76.099L7.09724 76.8314L8.08801 76.9352L29.2243 79.1489L29.4692 79.1745L29.6388 78.996L35.3186 73.0193L36.0142 72.2873L35.0104 72.1778L13.7973 69.8634Z" stroke="#002F75"/>
</svg>
