<svg width="94" height="98" viewBox="0 0 94 98" fill="none" xmlns="http://www.w3.org/2000/svg">
<path d="M59.8259 1.77113L71.6668 11.0784L70.6927 13.3833L78.6996 19.67L81.1951 17.9007L92.1776 26.8287L87.4705 32.5379L75.1214 29.4831L64.1408 41.4121L43.6084 39.1703L60.5376 19.5725L54.0593 7.4322L59.8259 1.77113Z" fill="black"/>
<path d="M31.2168 51.7635L52.4298 54.0779L46.7501 60.0546L25.6138 57.8409L31.2168 51.7635Z" fill="black"/>
<path d="M13.8433 70.6574L35.0564 72.9718L29.3767 78.9486L8.24036 76.7349L13.8433 70.6574Z" fill="black"/>
<path d="M39.6881 42.721L60.9012 45.0355L55.2214 51.0122L34.0851 48.7985L39.6881 42.721Z" fill="#FF7A00"/>
<path d="M22.8292 61.1495L44.0423 63.4639L38.3625 69.4407L17.2262 67.227L22.8292 61.1495Z" fill="#FF7A00"/>
<path d="M25.6982 83.055L17.9825 92.1042L1.44731 96.6527L1.56339 84.3963L5.08355 80.7114L25.6982 83.055Z" fill="#FF7A00"/>
<path d="M60.1349 1.37803L59.7893 1.10639L59.4756 1.41433L53.709 7.07539L53.442 7.3375L53.6182 7.66759L59.935 19.5052L43.23 38.8434L42.6075 39.564L43.5541 39.6673L64.0866 41.9091L64.3376 41.9365L64.5087 41.7507L75.2887 30.0395L87.3504 33.0233L87.656 33.0989L87.8563 32.856L92.5634 27.1468L92.8837 26.7583L92.493 26.4407L81.5105 17.5127L81.2157 17.2731L80.9059 17.4928L78.7148 19.0463L71.302 13.226L72.1274 11.273L72.276 10.9213L71.9758 10.6853L60.1349 1.37803ZM39.7423 42.224L39.4915 42.1966L39.3205 42.3821L33.7175 48.4596L33.0423 49.192L34.033 49.2958L55.1693 51.5095L55.4142 51.5351L55.5839 51.3566L61.2636 45.3799L61.9592 44.6479L60.9554 44.5384L39.7423 42.224ZM26.0787 83.3794L26.6884 82.6644L25.7547 82.5582L5.14003 80.2146L4.89344 80.1866L4.72201 80.366L1.20185 84.0509L1.06528 84.1938L1.06341 84.3915L0.947335 96.6479L0.94106 97.3105L1.57992 97.1348L18.1151 92.5863L18.2633 92.5455L18.363 92.4286L26.0787 83.3794ZM31.271 51.2664L31.0202 51.2391L30.8491 51.4246L25.2461 57.502L24.5709 58.2344L25.5617 58.3382L46.698 60.5519L46.9429 60.5776L47.1125 60.3991L52.7922 54.4223L53.4878 53.6904L52.484 53.5808L31.271 51.2664ZM22.8834 60.6525L22.6326 60.6251L22.4616 60.8106L16.8586 66.8881L16.1834 67.6205L17.1741 67.7243L38.3104 69.938L38.5553 69.9636L38.725 69.7851L44.4047 63.8084L45.1003 63.0764L44.0965 62.9669L22.8834 60.6525ZM13.8976 70.1604L13.6468 70.133L13.4757 70.3185L7.87275 76.396L7.1975 77.1284L8.18828 77.2322L29.3246 79.4459L29.5695 79.4715L29.7391 79.293L35.4188 73.3163L36.1144 72.5843L35.1106 72.4748L13.8976 70.1604Z" stroke="#8B8B8B"/>
</svg>
