<svg width="58" height="58" viewBox="0 0 58 58" fill="none" xmlns="http://www.w3.org/2000/svg">
<mask id="mask0_8_669" style="mask-type:alpha" maskUnits="userSpaceOnUse" x="0" y="0" width="58" height="58">
<rect width="58" height="58" fill="#D9D9D9"/>
</mask>
<g mask="url(#mask0_8_669)">
<path d="M14.1375 41.325C16.1917 39.7541 18.4875 38.5156 21.025 37.6094C23.5625 36.7031 26.2208 36.25 29 36.25C31.7792 36.25 34.4375 36.7031 36.975 37.6094C39.5125 38.5156 41.8083 39.7541 43.8625 41.325C45.2722 39.6736 46.3698 37.8007 47.1552 35.7062C47.9406 33.6118 48.3333 31.3764 48.3333 29C48.3333 23.643 46.4503 19.0816 42.6844 15.3156C38.9184 11.5496 34.3569 9.66665 29 9.66665C23.643 9.66665 19.0816 11.5496 15.3156 15.3156C11.5496 19.0816 9.66666 23.643 9.66666 29C9.66666 31.3764 10.0594 33.6118 10.8448 35.7062C11.6302 37.8007 12.7278 39.6736 14.1375 41.325ZM29 31.4166C26.6236 31.4166 24.6198 30.601 22.9885 28.9698C21.3573 27.3385 20.5417 25.3347 20.5417 22.9583C20.5417 20.5819 21.3573 18.5781 22.9885 16.9469C24.6198 15.3156 26.6236 14.5 29 14.5C31.3764 14.5 33.3802 15.3156 35.0115 16.9469C36.6427 18.5781 37.4583 20.5819 37.4583 22.9583C37.4583 25.3347 36.6427 27.3385 35.0115 28.9698C33.3802 30.601 31.3764 31.4166 29 31.4166ZM29 53.1666C25.6569 53.1666 22.5153 52.5323 19.575 51.2635C16.6347 49.9948 14.0771 48.2729 11.9021 46.0979C9.72708 43.9229 8.0052 41.3653 6.73645 38.425C5.4677 35.4847 4.83333 32.343 4.83333 29C4.83333 25.6569 5.4677 22.5153 6.73645 19.575C8.0052 16.6347 9.72708 14.0771 11.9021 11.9021C14.0771 9.72706 16.6347 8.00519 19.575 6.73644C22.5153 5.46769 25.6569 4.83331 29 4.83331C32.343 4.83331 35.4847 5.46769 38.425 6.73644C41.3653 8.00519 43.9229 9.72706 46.0979 11.9021C48.2729 14.0771 49.9948 16.6347 51.2635 19.575C52.5323 22.5153 53.1667 25.6569 53.1667 29C53.1667 32.343 52.5323 35.4847 51.2635 38.425C49.9948 41.3653 48.2729 43.9229 46.0979 46.0979C43.9229 48.2729 41.3653 49.9948 38.425 51.2635C35.4847 52.5323 32.343 53.1666 29 53.1666ZM29 48.3333C31.1347 48.3333 33.1486 48.0212 35.0417 47.3969C36.9347 46.7725 38.6667 45.8764 40.2375 44.7083C38.6667 43.5403 36.9347 42.6441 35.0417 42.0198C33.1486 41.3955 31.1347 41.0833 29 41.0833C26.8653 41.0833 24.8514 41.3955 22.9583 42.0198C21.0653 42.6441 19.3333 43.5403 17.7625 44.7083C19.3333 45.8764 21.0653 46.7725 22.9583 47.3969C24.8514 48.0212 26.8653 48.3333 29 48.3333ZM29 26.5833C30.0472 26.5833 30.9132 26.241 31.5979 25.5562C32.2826 24.8715 32.625 24.0055 32.625 22.9583C32.625 21.9111 32.2826 21.0451 31.5979 20.3604C30.9132 19.6757 30.0472 19.3333 29 19.3333C27.9528 19.3333 27.0868 19.6757 26.4021 20.3604C25.7174 21.0451 25.375 21.9111 25.375 22.9583C25.375 24.0055 25.7174 24.8715 26.4021 25.5562C27.0868 26.241 27.9528 26.5833 29 26.5833Z" fill="#1C1B1F"/>
</g>
</svg>
