<svg width="24" height="24" viewBox="0 0 24 24" fill="none" xmlns="http://www.w3.org/2000/svg">
<mask id="mask0_6_107" style="mask-type:alpha" maskUnits="userSpaceOnUse" x="0" y="0" width="24" height="24">
<rect y="3.05176e-05" width="24" height="24" fill="#D9D9D9"/>
</mask>
<g mask="url(#mask0_6_107)">
<path d="M11.025 21V18.85C10.1417 18.65 9.37918 18.2667 8.73751 17.7C8.09585 17.1334 7.62501 16.3334 7.32501 15.3L9.17501 14.55C9.42501 15.35 9.79585 15.9584 10.2875 16.375C10.7792 16.7917 11.425 17 12.225 17C12.9083 17 13.4875 16.8459 13.9625 16.5375C14.4375 16.2292 14.675 15.75 14.675 15.1C14.675 14.5167 14.4917 14.0542 14.125 13.7125C13.7583 13.3709 12.9083 12.9834 11.575 12.55C10.1417 12.1 9.15835 11.5625 8.62501 10.9375C8.09168 10.3125 7.82501 9.55003 7.82501 8.65003C7.82501 7.5667 8.17501 6.72503 8.87501 6.12503C9.57501 5.52503 10.2917 5.18336 11.025 5.10003V3.00003H13.025V5.10003C13.8583 5.23336 14.5458 5.53753 15.0875 6.01253C15.6292 6.48753 16.025 7.0667 16.275 7.75003L14.425 8.55003C14.225 8.0167 13.9417 7.6167 13.575 7.35003C13.2083 7.08336 12.7083 6.95003 12.075 6.95003C11.3417 6.95003 10.7833 7.11253 10.4 7.43753C10.0167 7.76253 9.82501 8.1667 9.82501 8.65003C9.82501 9.20003 10.075 9.63336 10.575 9.95003C11.075 10.2667 11.9417 10.6 13.175 10.95C14.325 11.2834 15.1958 11.8125 15.7875 12.5375C16.3792 13.2625 16.675 14.1 16.675 15.05C16.675 16.2334 16.325 17.1334 15.625 17.75C14.925 18.3667 14.0583 18.75 13.025 18.9V21H11.025Z" fill="#038610"/>
</g>
</svg>
