<svg width="74" height="72" viewBox="0 0 74 72" fill="none" xmlns="http://www.w3.org/2000/svg">
<path d="M50.2324 1.55639L58.6601 9.50131L57.807 11.2242L63.5062 16.5912L65.4765 15.3782L73.2778 22.9758L69.4381 27.0996L60.3026 23.9619L51.4177 32.5065L36.0809 29.4855L49.842 15.3782L45.5978 5.57656L50.2324 1.55639Z" fill="#29374E"/>
<path d="M32.9457 31.988L48.791 35.1079L44.2053 39.3778L28.4126 36.3407L32.9457 31.988Z" fill="#29374E"/>
<path d="M20.3181 62.328L14.0403 68.8483L1.35873 71.3329L2.08371 61.8545L4.9248 59.2231L20.3181 62.328Z" fill="#29374E"/>
<path d="M26.0995 38.4558L41.9447 41.5756L37.359 45.8456L21.5663 42.8085L26.0995 38.4558Z" fill="#29374E"/>
<path d="M19.2984 45.1947L35.1437 48.3146L30.558 52.5845L14.7653 49.5474L19.2984 45.1947Z" fill="#29374E"/>
<path d="M12.0408 51.9905L27.886 55.1104L23.3003 59.3803L7.50759 56.3432L12.0408 51.9905Z" fill="#29374E"/>
<path d="M50.2324 1.55639L58.6601 9.50131L57.807 11.2242L63.5062 16.5912L65.4765 15.3782L73.2778 22.9758L69.4381 27.0996L60.3026 23.9619L51.4177 32.5065L36.0809 29.4855L49.842 15.3782L45.5978 5.57656L50.2324 1.55639Z" stroke="#29374E"/>
<path d="M32.9457 31.988L48.791 35.1079L44.2053 39.3778L28.4126 36.3407L32.9457 31.988Z" stroke="#29374E"/>
<path d="M20.3181 62.328L14.0403 68.8483L1.35873 71.3329L2.08371 61.8545L4.9248 59.2231L20.3181 62.328Z" stroke="#29374E"/>
<path d="M26.0995 38.4558L41.9447 41.5756L37.359 45.8456L21.5663 42.8085L26.0995 38.4558Z" stroke="#29374E"/>
<path d="M19.2984 45.1947L35.1437 48.3146L30.558 52.5845L14.7653 49.5474L19.2984 45.1947Z" stroke="#29374E"/>
<path d="M12.0408 51.9905L27.886 55.1104L23.3003 59.3803L7.50759 56.3432L12.0408 51.9905Z" stroke="#29374E"/>
</svg>
