<svg width="24" height="24" viewBox="0 0 24 24" fill="none" xmlns="http://www.w3.org/2000/svg">
<mask id="mask0_5_64" style="mask-type:alpha" maskUnits="userSpaceOnUse" x="0" y="0" width="24" height="24">
<rect width="24" height="24" fill="#D9D9D9"/>
</mask>
<g mask="url(#mask0_5_64)">
<path d="M16.2 21.9C15.1333 21.7333 14.2208 21.2667 13.4625 20.5C12.7042 19.7333 12.2417 18.8167 12.075 17.75H13.55C13.7 18.4167 14.0125 18.9875 14.4875 19.4625C14.9625 19.9375 15.5333 20.25 16.2 20.4V21.9ZM17.7 21.925V20.4C18.5 20.2167 19.1583 19.8167 19.675 19.2C20.1917 18.5833 20.45 17.85 20.45 17C20.45 16.15 20.1917 15.4167 19.675 14.8C19.1583 14.1833 18.5 13.7833 17.7 13.6V12.075C18.9 12.2583 19.9083 12.8125 20.725 13.7375C21.5417 14.6625 21.95 15.75 21.95 17C21.95 18.25 21.5417 19.3375 20.725 20.2625C19.9083 21.1875 18.9 21.7417 17.7 21.925ZM12.075 16.25C12.2417 15.1833 12.7042 14.2667 13.4625 13.5C14.2208 12.7333 15.1333 12.2667 16.2 12.1V13.6C15.5333 13.75 14.9625 14.0625 14.4875 14.5375C14.0125 15.0125 13.7 15.5833 13.55 16.25H12.075ZM15.95 19V15L19.05 17L15.95 19ZM9.25 22L8.85 18.8C8.63333 18.7167 8.42916 18.6167 8.2375 18.5C8.04583 18.3833 7.85833 18.2583 7.675 18.125L4.7 19.375L1.95 14.625L4.525 12.675C4.50833 12.5583 4.5 12.4458 4.5 12.3375V11.6625C4.5 11.5542 4.50833 11.4417 4.525 11.325L1.95 9.375L4.7 4.625L7.675 5.875C7.85833 5.74167 8.05 5.61667 8.25 5.5C8.45 5.38333 8.65 5.28333 8.85 5.2L9.25 2H14.75L15.15 5.2C15.3667 5.28333 15.5708 5.38333 15.7625 5.5C15.9542 5.61667 16.1417 5.74167 16.325 5.875L19.3 4.625L22.05 9.375L20.2 10.775C19.8333 10.5917 19.4583 10.4375 19.075 10.3125C18.6917 10.1875 18.2833 10.1 17.85 10.05L19.425 8.85L18.45 7.15L15.975 8.2C15.6083 7.81667 15.2042 7.49583 14.7625 7.2375C14.3208 6.97917 13.8417 6.78333 13.325 6.65L13 4H11.025L10.675 6.65C10.1583 6.78333 9.67916 6.97917 9.2375 7.2375C8.79583 7.49583 8.39166 7.80833 8.025 8.175L5.55 7.15L4.575 8.85L6.725 10.45C6.64166 10.7 6.58333 10.95 6.55 11.2C6.51666 11.45 6.5 11.7167 6.5 12C6.5 12.2667 6.51666 12.525 6.55 12.775C6.58333 13.025 6.64166 13.275 6.725 13.525L4.575 15.15L5.55 16.85L8.025 15.8C8.30833 16.0833 8.6125 16.3375 8.9375 16.5625C9.2625 16.7875 9.61666 16.975 10 17.125C10.0167 18.075 10.2125 18.9667 10.5875 19.8C10.9625 20.6333 11.4667 21.3667 12.1 22H9.25ZM10.275 15.025C10.375 14.6917 10.4958 14.3708 10.6375 14.0625C10.7792 13.7542 10.9417 13.4583 11.125 13.175C10.9417 13.0417 10.8 12.8708 10.7 12.6625C10.6 12.4542 10.55 12.2333 10.55 12C10.55 11.5833 10.6958 11.2292 10.9875 10.9375C11.2792 10.6458 11.6333 10.5 12.05 10.5C12.2833 10.5 12.5083 10.5542 12.725 10.6625C12.9417 10.7708 13.1167 10.9167 13.25 11.1C13.5333 10.9167 13.825 10.7542 14.125 10.6125C14.425 10.4708 14.7417 10.3583 15.075 10.275C14.775 9.74167 14.3583 9.3125 13.825 8.9875C13.2917 8.6625 12.7 8.5 12.05 8.5C11.0667 8.5 10.2375 8.84167 9.5625 9.525C8.8875 10.2083 8.55 11.0333 8.55 12C8.55 12.6333 8.70416 13.2208 9.0125 13.7625C9.32083 14.3042 9.74166 14.725 10.275 15.025Z" fill="#0962E8"/>
</g>
</svg>
